# xmcd
# Copyright (C) 1995-1998 Ti Kan
#
# Track frame offsets:
#       150
#       10462
#       23697
#       41257
#       54297
#       77707
#
# Disc length: 1048 seconds
#
# Revision: 5
# Processed by: cddbd v1.5.2PL0 Copyright (c) Steve Scherf et al.
# Submitted via: CD-Import v1.0
#
DISCID=38041606
DTITLE=Outkast - Lied Der Woche
DYEAR=02
DGENRE=
TTITLE0=My Favorite Things
TTITLE1=My Favorite Things
TTITLE2=My Favorite Things
TTITLE3=My Favorite Things
TTITLE4=My Favorite Things
TTITLE5=Fcw-Pausenjingle
EXTD=
EXTT0=
EXTT1=
EXTT2=
EXTT3=
EXTT4=
EXTT5=
PLAYORDER=
